<svg xmlns="http://www.w3.org/2000/svg" xmlns:v="https://svgstorm.com"
viewBox = "0 0 518 518"
width="518"
height="518">
<g fill="None" fill-opacity="0.0" stroke="#0E1D26" stroke-opacity="0.00" stroke-width="0.3"><path d="
M 0.00 236.00 
C 8.41 115.40 115.47 8.39 236.00 0.00
L 0.00 0.00
L 0.00 236.00 Z"/>
</g>
<g fill="None" fill-opacity="0.0" stroke="#EAF6EF" stroke-opacity="0.99" stroke-width="0.3"><path d="
M 0.00 236.00 
L 0.00 282.00
C 8.41 402.60 115.47 509.61 236.00 518.00
L 282.00 518.00
C 402.60 509.60 509.61 402.53 518.00 282.00
L 518.00 236.00
C 509.60 115.40 402.53 8.39 282.00 0.00
L 236.00 0.00
C 115.47 8.39 8.41 115.40 0.00 236.00
M 271.00 36.00 
C 387.24 42.57 492.03 151.43 481.00 271.00 C 476.80 389.69 362.64 488.74 244.33 480.67 C 127.21 475.94 22.38 365.23 34.00 246.00 C 36.91 126.63 152.75 28.05 271.00 36.00 Z"/>
</g>
<g fill="None" fill-opacity="0.0" stroke="#0E1D26" stroke-opacity="0.00" stroke-width="0.3"><path d="
M 518.00 236.00 
L 518.00 0.00
L 282.00 0.00
C 402.53 8.39 509.60 115.40 518.00 236.00 Z"/>
</g>
<g fill="None" fill-opacity="0.0" stroke="#0E1D26" stroke-opacity="1.00" stroke-width="0.3"><path d="
M 271.00 36.00 
C 152.75 28.05 36.91 126.63 34.00 246.00 C 22.38 365.23 127.21 475.94 244.33 480.67 C 362.64 488.74 476.80 389.69 481.00 271.00 C 492.03 151.43 387.24 42.57 271.00 36.00
M 383.00 115.00 
C 405.56 123.10 395.08 160.12 370.93 151.07 C 346.30 144.88 358.73 107.00 383.00 115.00
M 144.00 393.00 
C 144.00 305.00 144.00 217.00 144.00 129.00
C 190.40 131.40 240.96 124.01 286.22 133.78 C 366.59 149.89 407.92 250.48 370.08 321.08 C 353.40 353.66 322.01 378.99 286.98 387.98 C 241.12 397.44 192.10 391.05 144.00 393.00 Z"/>
</g>
<g fill="None" fill-opacity="0.0" stroke="#EAF6EF" stroke-opacity="1.00" stroke-width="0.3"><path d="
M 383.00 115.00 
C 358.73 107.00 346.30 144.88 370.93 151.07 C 395.08 160.12 405.56 123.10 383.00 115.00 Z"/>
</g>
<g fill="None" fill-opacity="0.0" stroke="#EAF6EF" stroke-opacity="1.00" stroke-width="0.3"><path d="
M 144.00 393.00 
C 192.10 391.05 241.12 397.44 286.98 387.98 C 322.01 378.99 353.40 353.66 370.08 321.08 C 407.92 250.48 366.59 149.89 286.22 133.78 C 240.96 124.01 190.40 131.40 144.00 129.00
C 144.00 217.00 144.00 305.00 144.00 393.00
M 192.00 347.00 
C 191.34 289.42 193.33 231.16 191.00 174.00
C 234.85 174.90 285.78 166.12 316.25 203.75 C 344.33 234.84 342.62 285.60 315.75 316.75 C 288.46 358.31 234.51 343.44 192.00 347.00 Z"/>
</g>
<g fill="None" fill-opacity="0.0" stroke="#0E1D26" stroke-opacity="1.00" stroke-width="0.3"><path d="
M 192.00 347.00 
C 234.51 343.44 288.46 358.31 315.75 316.75 C 342.62 285.60 344.33 234.84 316.25 203.75 C 285.78 166.12 234.85 174.90 191.00 174.00
C 193.33 231.16 191.34 289.42 192.00 347.00 Z"/>
</g>
<g fill="None" fill-opacity="0.0" stroke="#0E1D26" stroke-opacity="0.00" stroke-width="0.3"><path d="
M 0.00 518.00 
L 236.00 518.00
C 115.47 509.61 8.41 402.60 0.00 282.00
L 0.00 518.00 Z"/>
</g>
<g fill="None" fill-opacity="0.0" stroke="#0E1D26" stroke-opacity="0.00" stroke-width="0.3"><path d="
M 282.00 518.00 
L 518.00 518.00
L 518.00 282.00
C 509.61 402.53 402.60 509.60 282.00 518.00 Z"/>
</g>
<g fill="#0E1D26" fill-opacity="0.00" stroke="None">
<path d="
M 0.00 236.00 
C 8.41 115.40 115.47 8.39 236.00 0.00
L 0.00 0.00
L 0.00 236.00 Z"/>
</g>
<g fill="#EAF6EF" fill-opacity="0.99" stroke="None">
<path d="
M 0.00 236.00 
L 0.00 282.00
C 8.41 402.60 115.47 509.61 236.00 518.00
L 282.00 518.00
C 402.60 509.60 509.61 402.53 518.00 282.00
L 518.00 236.00
C 509.60 115.40 402.53 8.39 282.00 0.00
L 236.00 0.00
C 115.47 8.39 8.41 115.40 0.00 236.00
M 271.00 36.00 
C 387.24 42.57 492.03 151.43 481.00 271.00 C 476.80 389.69 362.64 488.74 244.33 480.67 C 127.21 475.94 22.38 365.23 34.00 246.00 C 36.91 126.63 152.75 28.05 271.00 36.00 Z"/>
</g>
<g fill="#0E1D26" fill-opacity="0.00" stroke="None">
<path d="
M 518.00 236.00 
L 518.00 0.00
L 282.00 0.00
C 402.53 8.39 509.60 115.40 518.00 236.00 Z"/>
</g>
<g fill="#0E1D26" fill-opacity="1.00" stroke="None">
<path d="
M 271.00 36.00 
C 152.75 28.05 36.91 126.63 34.00 246.00 C 22.38 365.23 127.21 475.94 244.33 480.67 C 362.64 488.74 476.80 389.69 481.00 271.00 C 492.03 151.43 387.24 42.57 271.00 36.00
M 383.00 115.00 
C 405.56 123.10 395.08 160.12 370.93 151.07 C 346.30 144.88 358.73 107.00 383.00 115.00
M 144.00 393.00 
C 144.00 305.00 144.00 217.00 144.00 129.00
C 190.40 131.40 240.96 124.01 286.22 133.78 C 366.59 149.89 407.92 250.48 370.08 321.08 C 353.40 353.66 322.01 378.99 286.98 387.98 C 241.12 397.44 192.10 391.05 144.00 393.00 Z"/>
</g>
<g fill="#EAF6EF" fill-opacity="1.00" stroke="None">
<path d="
M 383.00 115.00 
C 358.73 107.00 346.30 144.88 370.93 151.07 C 395.08 160.12 405.56 123.10 383.00 115.00 Z"/>
</g>
<g fill="#EAF6EF" fill-opacity="1.00" stroke="None">
<path d="
M 144.00 393.00 
C 192.10 391.05 241.12 397.44 286.98 387.98 C 322.01 378.99 353.40 353.66 370.08 321.08 C 407.92 250.48 366.59 149.89 286.22 133.78 C 240.96 124.01 190.40 131.40 144.00 129.00
C 144.00 217.00 144.00 305.00 144.00 393.00
M 192.00 347.00 
C 191.34 289.42 193.33 231.16 191.00 174.00
C 234.85 174.90 285.78 166.12 316.25 203.75 C 344.33 234.84 342.62 285.60 315.75 316.75 C 288.46 358.31 234.51 343.44 192.00 347.00 Z"/>
</g>
<g fill="#0E1D26" fill-opacity="1.00" stroke="None">
<path d="
M 192.00 347.00 
C 234.51 343.44 288.46 358.31 315.75 316.75 C 342.62 285.60 344.33 234.84 316.25 203.75 C 285.78 166.12 234.85 174.90 191.00 174.00
C 193.33 231.16 191.34 289.42 192.00 347.00 Z"/>
</g>
<g fill="#0E1D26" fill-opacity="0.00" stroke="None">
<path d="
M 0.00 518.00 
L 236.00 518.00
C 115.47 509.61 8.41 402.60 0.00 282.00
L 0.00 518.00 Z"/>
</g>
<g fill="#0E1D26" fill-opacity="0.00" stroke="None">
<path d="
M 282.00 518.00 
L 518.00 518.00
L 518.00 282.00
C 509.61 402.53 402.60 509.60 282.00 518.00 Z"/>
</g>
</svg>